<?xml version="1.0" encoding="UTF-8"?>
<svg id="Layer_1" xmlns="http://www.w3.org/2000/svg" version="1.1" viewBox="0 0 512 512">
  <!-- Generator: Adobe Illustrator 30.0.0, SVG Export Plug-In . SVG Version: 2.1.1 Build 123)  -->
  <defs>
    <style>
      .st0 {
        fill: none;
        stroke: #fff;
        stroke-linecap: round;
        stroke-linejoin: round;
        stroke-width: 16px;
      }
    </style>
  </defs>
  <path class="st0" d="M240,228.4c0-8.8,7.2-16,16-16s16,7.2,16,16M352,212.4h8M160,212.4h-8M160,212.4c0,48,8,64,40,64s40-16,40-64c0,0-8-8-40-8s-40,8-40,8ZM352,212.4c0,48-8,64-40,64s-40-16-40-64c0,0,8-8,40-8s40,8,40,8Z"/>
</svg>